<?xml version="1.0" standalone="no"?>
<!DOCTYPE svg PUBLIC "-//W3C//DTD SVG 20010904//EN"
 "http://www.w3.org/TR/2001/REC-SVG-20010904/DTD/svg10.dtd">
<svg version="1.0" xmlns="http://www.w3.org/2000/svg"
 width="572.000000pt" height="529.000000pt" viewBox="0 0 572.000000 529.000000"
 preserveAspectRatio="xMidYMid meet">

<g transform="translate(0.000000,529.000000) scale(0.100000,-0.100000)"
fill="#000000" stroke="none">
<path d="M2802 5254 c-12 -8 -22 -21 -22 -29 0 -7 -16 -36 -35 -64 -83 -125
-95 -173 -44 -179 21 -2 34 7 65 45 22 26 46 62 54 78 8 17 27 48 42 69 33 46
34 57 10 79 -23 21 -41 21 -70 1z"/>
<path d="M2887 5100 c-40 -43 -147 -208 -147 -225 0 -9 8 -32 19 -53 54 -109
111 -359 111 -490 0 -100 -32 -192 -67 -192 -19 0 -153 290 -153 331 0 10 -10
30 -23 45 -19 21 -29 26 -50 20 -15 -3 -32 -16 -38 -29 -7 -12 -27 -35 -46
-51 -18 -16 -33 -35 -33 -44 0 -8 22 -49 48 -91 26 -42 54 -92 62 -111 7 -19
27 -64 43 -100 37 -82 63 -155 73 -200 10 -53 43 -78 96 -75 23 2 104 6 178
10 141 6 215 16 315 42 33 8 69 16 80 18 11 1 27 5 35 8 8 3 51 18 95 32 98
32 123 51 130 101 7 51 -10 81 -62 109 -36 19 -49 21 -100 14 -32 -5 -94 -13
-138 -18 -44 -6 -87 -12 -95 -14 -8 -2 -37 -7 -65 -11 -27 -4 -66 -13 -85 -21
-121 -46 -147 -57 -163 -70 -18 -13 -17 -15 7 -54 14 -22 22 -42 18 -44 -10
-6 -139 -3 -145 3 -3 3 -8 17 -12 33 -7 25 -5 27 25 27 23 0 46 11 76 35 62
51 87 105 120 268 1 4 2 28 3 53 l1 46 39 -58 c100 -149 258 -206 392 -141 30
15 68 40 82 57 35 39 47 38 37 -4 -15 -68 30 -118 82 -92 22 11 23 17 23 111
1 120 11 222 30 290 44 162 26 192 -83 140 -38 -18 -52 -31 -53 -48 -6 -85
-21 -160 -39 -202 -10 -22 -27 -61 -38 -86 -15 -35 -27 -48 -53 -58 -19 -7
-41 -16 -49 -20 -19 -10 -80 -2 -80 10 0 5 -6 9 -14 9 -25 0 -94 77 -141 157
-83 141 -143 368 -159 594 -2 25 -6 51 -10 57 -12 19 -55 9 -79 -18z m592
-1056 c23 -20 -347 -105 -449 -103 l-35 0 45 21 c74 34 83 37 280 83 47 11
146 10 159 -1z"/>
<path d="M2195 4238 c-76 -28 -173 -80 -205 -108 -195 -175 -312 -329 -438
-580 -18 -36 -54 -106 -80 -156 -63 -122 -66 -129 -149 -364 -15 -44 -42 -174
-48 -235 -4 -38 -9 -81 -11 -95 -2 -14 1 -65 7 -115 13 -107 35 -145 113 -199
51 -35 155 -64 178 -50 5 3 32 8 61 10 29 3 56 9 62 15 5 5 15 9 22 9 13 0 32
8 168 68 58 26 157 89 163 104 2 5 8 8 14 8 5 0 15 6 22 13 7 6 35 30 61 52
66 55 76 66 157 178 39 54 73 96 75 93 3 -3 -2 -24 -12 -48 -34 -84 -52 -154
-44 -175 14 -39 53 -34 114 14 30 24 53 48 49 54 -6 10 10 110 42 267 15 69
32 90 50 61 3 -6 17 -8 31 -4 22 5 24 3 18 -17 -4 -13 -14 -35 -21 -50 -18
-34 -74 -189 -74 -203 0 -6 13 -25 29 -43 38 -41 73 -42 113 -2 30 31 30 31
48 10 17 -20 64 -27 74 -11 3 4 54 37 113 71 59 35 117 70 129 77 20 12 -13
-60 -111 -244 -27 -51 -27 -54 -11 -87 25 -54 88 -55 102 -2 5 21 99 215 120
247 5 8 23 48 40 89 l32 75 46 0 c29 0 52 7 62 17 16 16 16 19 0 43 -13 20
-22 24 -41 19 -28 -7 -31 2 -11 29 8 10 26 17 45 17 18 0 39 8 51 20 11 11 26
20 34 20 8 0 18 5 21 10 20 33 24 -10 19 -223 -5 -259 -4 -264 56 -255 48 7
24 -6 -105 -57 -66 -26 -124 -51 -130 -55 -5 -5 -39 -19 -75 -33 -111 -42
-221 -100 -237 -123 -21 -32 -13 -68 15 -72 26 -4 26 0 7 -122 -12 -79 -18
-98 -37 -110 -43 -28 -68 -59 -68 -83 0 -20 6 -26 34 -31 33 -6 33 -7 25 -49
-4 -23 -15 -115 -24 -204 -9 -89 -18 -169 -19 -176 -1 -8 -9 -22 -19 -31 -34
-34 -11 -96 35 -96 11 0 33 11 48 24 25 21 172 106 183 106 3 0 7 -9 10 -20 3
-11 24 -28 49 -39 23 -11 36 -20 28 -20 -35 -2 -42 -21 -60 -142 -10 -68 -22
-158 -25 -199 -4 -41 -11 -82 -16 -92 -11 -21 8 -76 28 -80 10 -2 -6 -19 -45
-45 -33 -24 -62 -43 -64 -43 -5 0 -2 76 6 140 3 30 8 71 10 90 2 19 10 55 16
80 23 81 10 111 -53 124 -53 11 -62 -6 -61 -105 2 -81 0 -89 -17 -89 -12 0
-24 -11 -31 -27 -14 -32 -86 -143 -93 -143 -6 0 2 60 21 164 17 91 14 118 -18
134 -18 8 -19 11 -6 11 10 1 50 16 90 35 40 19 91 41 113 50 42 18 55 31 55
59 0 22 -50 74 -59 60 -10 -14 -87 -52 -191 -92 -52 -21 -150 -64 -217 -97
-149 -72 -170 -101 -107 -147 25 -19 26 -19 65 9 30 21 42 25 48 15 8 -12 0
-71 -20 -162 -6 -26 -11 -61 -11 -78 -1 -36 -8 -39 -33 -11 -10 11 -26 20 -37
20 -10 0 -18 4 -18 8 0 5 -42 9 -92 11 -51 1 -94 3 -95 5 -2 2 16 33 39 69 68
106 163 262 175 287 3 8 15 26 25 39 21 27 23 72 6 104 -38 71 -117 81 -258
32 -41 -14 -127 -43 -190 -64 -369 -122 -656 -299 -893 -549 -54 -57 -58 -66
-62 -117 -3 -30 -1 -54 3 -54 23 4 42 -2 37 -12 -9 -13 83 -7 165 11 104 22
225 51 258 61 18 6 53 12 78 14 24 2 54 7 67 11 23 7 290 42 295 39 1 -1 -13
-21 -33 -44 -30 -37 -33 -46 -23 -64 13 -26 34 -40 66 -45 26 -3 69 38 125
120 36 53 51 58 145 44 73 -11 76 -20 33 -84 -52 -79 -158 -178 -224 -210
-240 -118 -381 -167 -622 -217 -44 -9 -96 -20 -115 -25 -19 -4 -66 -13 -105
-20 -38 -6 -86 -16 -105 -21 -68 -18 -197 -30 -306 -30 -116 1 -130 -4 -134
-44 -4 -36 0 -44 25 -61 57 -37 315 -7 745 87 25 6 56 12 70 14 14 2 54 12 90
23 36 11 79 23 95 27 45 10 257 101 353 151 47 24 89 44 95 44 17 0 190 121
260 182 37 33 67 54 67 46 0 -17 50 -45 73 -40 9 2 17 11 18 20 2 60 59 441
70 470 6 14 5 31 -1 42 -14 26 -14 27 20 44 33 16 32 23 15 -58 -3 -14 -14
-83 -24 -155 -24 -156 -18 -196 29 -203 18 -3 40 2 57 13 35 23 112 110 113
127 0 6 4 12 8 12 4 0 6 -15 4 -33 -3 -27 1 -37 22 -51 15 -9 31 -14 36 -11 6
3 10 2 10 -2 0 -5 -24 -27 -52 -50 -29 -23 -73 -63 -98 -88 -43 -44 -44 -47
-26 -61 11 -8 25 -14 31 -14 21 0 84 37 147 87 35 28 110 81 168 118 58 37
135 97 173 133 37 37 71 69 75 72 25 17 84 117 97 164 9 31 21 56 27 56 5 0 8
-6 5 -14 -3 -8 -9 -32 -13 -53 -4 -21 -13 -50 -20 -65 -20 -39 -17 -56 12 -83
22 -21 29 -22 47 -12 45 25 57 40 58 76 l1 36 10 -31 c19 -60 92 -80 161 -45
55 28 66 39 111 111 92 145 126 235 126 333 0 88 -49 147 -129 155 -28 2 -61
2 -75 -2 -31 -8 -115 -109 -123 -148 -6 -33 -18 -37 -26 -8 -3 11 -12 20 -21
20 -24 0 -19 19 9 32 27 12 34 45 13 66 -7 7 -26 12 -44 12 -24 0 -40 -9 -63
-35 -30 -34 -42 -85 -21 -85 11 0 12 -100 1 -175 -8 -51 -11 -49 -30 21 -14
54 -43 83 -121 125 -36 18 -67 36 -70 40 -3 3 -27 18 -53 34 -26 15 -47 28
-45 30 2 1 37 20 78 42 41 22 125 68 185 102 97 54 194 103 370 186 28 13 82
36 120 50 39 14 84 32 100 40 17 7 53 22 80 33 146 58 241 114 229 133 -3 6 2
16 12 24 15 11 17 18 9 41 -15 41 -53 52 -102 30 -21 -10 -49 -22 -63 -28 -14
-5 -38 -16 -55 -23 -78 -35 -104 -46 -150 -64 -27 -11 -133 -56 -235 -100
-102 -45 -188 -81 -191 -81 -4 0 -65 -32 -135 -71 -71 -39 -167 -92 -214 -116
-47 -25 -117 -63 -156 -84 -39 -22 -75 -39 -78 -39 -9 0 -1 79 20 210 28 179
15 158 134 208 104 43 304 109 555 183 147 43 311 96 431 140 44 16 87 29 95
29 23 0 48 32 44 55 -2 11 -4 23 -4 28 -2 17 -43 47 -65 47 -27 0 -273 -81
-352 -115 -29 -13 -67 -26 -85 -30 -19 -4 -38 -11 -44 -15 -5 -4 -57 -24 -115
-43 -163 -55 -251 -86 -263 -94 -7 -4 -39 -17 -72 -29 -33 -12 -91 -35 -130
-52 -38 -16 -71 -28 -73 -27 -2 2 4 38 14 81 19 89 20 114 4 124 -6 3 36 25
92 48 140 55 297 120 333 137 17 7 71 28 120 45 324 115 515 176 680 216 125
30 151 47 136 87 -19 50 -42 47 -366 -49 -204 -61 -373 -116 -475 -154 l-85
-31 33 34 34 35 -11 73 c-26 182 -37 442 -32 713 3 104 0 122 -17 145 -22 30
-51 37 -82 21 -14 -8 -19 -17 -15 -30 6 -18 -21 -71 -131 -258 -46 -77 -51
-82 -77 -78 -25 5 -66 -6 -142 -39 -16 -7 -61 -26 -100 -41 -38 -15 -76 -32
-83 -37 -21 -16 -21 -5 1 51 12 33 32 62 51 76 30 23 276 126 299 126 36 0 89
24 97 43 6 12 15 29 22 38 15 21 4 47 -24 58 -39 14 -219 -44 -382 -125 -60
-29 -76 -30 -76 -5 0 29 -36 67 -86 91 -90 44 -228 22 -449 -73 l-60 -26 -9
-55 c-4 -31 -6 -63 -2 -71 9 -24 57 -39 80 -25 43 27 87 50 95 50 5 0 2 -19
-5 -42 -8 -24 -16 -56 -20 -73 l-6 -30 -27 32 c-17 21 -43 36 -73 44 -40 11
-56 10 -131 -10 -121 -32 -211 -70 -293 -123 -84 -54 -218 -156 -222 -169 -2
-5 -8 -9 -14 -9 -5 0 -24 -15 -42 -34 -18 -18 -39 -37 -47 -42 -8 -5 -33 -30
-56 -56 -38 -42 -43 -53 -43 -95 0 -75 8 -91 48 -103 29 -8 40 -6 56 8 30 25
120 118 204 210 40 44 98 99 129 123 32 24 67 54 78 65 30 32 151 75 224 80
l63 4 -7 -57 c-6 -50 -34 -118 -78 -188 -59 -95 -233 -267 -332 -328 -269
-166 -432 -173 -480 -20 -39 125 11 345 135 588 62 122 140 261 173 305 10 14
40 61 68 105 108 170 384 455 440 455 21 0 26 -36 10 -68 -5 -9 -19 -48 -31
-87 -27 -86 -85 -225 -121 -286 -15 -25 -30 -57 -34 -70 -4 -13 -20 -42 -35
-64 -34 -51 -44 -89 -29 -118 28 -52 74 -51 112 2 15 22 27 43 27 47 0 4 6 15
14 23 29 32 89 149 148 286 33 77 71 158 84 181 39 67 64 152 64 221 0 34 -4
63 -9 63 -5 0 -14 14 -21 30 -7 17 -25 39 -39 50 -33 23 -134 33 -176 18z
m590 -836 c5 -12 -8 -31 -47 -67 -49 -45 -170 -135 -183 -135 -2 0 3 21 13 48
10 26 20 68 21 94 2 38 -1 47 -16 50 -14 3 86 40 142 52 16 4 63 -24 70 -42z
m671 6 c-3 -24 -5 -60 -5 -80 -1 -35 -3 -38 -29 -38 -15 0 -38 -7 -50 -16 -13
-9 -25 -14 -27 -12 -2 2 19 39 45 83 27 44 50 86 50 93 0 6 5 12 11 12 6 0 8
-16 5 -42z m-692 -232 c-6 -33 -8 -35 -23 -23 -9 8 -22 16 -30 19 -10 3 -3 11
20 25 19 11 35 19 37 18 2 -2 0 -19 -4 -39z m406 -46 c0 -6 -16 -36 -36 -68
-34 -54 -43 -61 -160 -122 -150 -78 -149 -78 -136 -54 5 11 15 51 22 89 16 86
18 90 40 70 16 -14 50 -12 50 4 0 8 50 35 125 66 65 26 95 31 95 15z m-446
-137 c-15 -74 -49 -163 -61 -163 -17 0 -17 4 6 48 10 20 26 61 35 90 19 56 30
70 20 25z m1189 -1509 c-14 -80 -89 -233 -141 -286 -20 -21 -40 -38 -44 -38
-15 0 3 101 27 154 14 30 25 60 25 66 0 7 9 23 20 37 11 14 20 34 20 45 0 34
38 96 62 100 38 6 43 -7 31 -78z m-202 -84 c-11 -8 -32 -31 -47 -50 -15 -19
-23 -26 -19 -15 4 11 13 41 18 67 l11 47 28 -17 c28 -16 28 -17 9 -32z m-329
-28 c23 -26 30 -81 16 -121 -19 -53 -37 -81 -97 -147 l-53 -59 7 50 c4 28 9
64 10 80 2 17 11 80 20 141 l17 112 33 -19 c18 -11 39 -27 47 -37z m-1116
-166 c-25 -47 -63 -112 -85 -146 -23 -34 -41 -67 -41 -73 -1 -31 -36 -54 -84
-55 -27 -1 -52 -5 -58 -8 -5 -3 -34 -10 -66 -14 -82 -13 -337 -58 -404 -72
-50 -10 -58 -9 -74 6 -9 10 -13 21 -8 25 35 31 206 137 280 174 113 58 385
180 444 200 25 9 61 22 80 31 60 26 62 20 16 -68z"/>
<path d="M4510 4200 c-25 -4 -85 -19 -135 -34 -165 -50 -250 -77 -270 -86 -11
-5 -74 -30 -140 -56 -66 -25 -133 -52 -149 -60 -16 -8 -72 -27 -125 -43 -100
-30 -313 -109 -415 -155 -32 -14 -64 -26 -72 -26 -24 0 -44 -31 -44 -71 0 -57
27 -60 142 -16 121 45 227 79 363 117 61 18 119 34 129 37 13 4 17 2 12 -5 -4
-7 -15 -12 -24 -12 -21 0 -46 -36 -49 -70 -1 -14 -13 -72 -27 -130 -20 -87
-53 -263 -71 -380 -2 -14 -5 -72 -7 -130 l-3 -105 30 -3 c20 -2 38 5 55 20 14
13 41 35 61 50 l36 27 7 128 c3 70 12 157 20 193 23 110 58 348 54 377 -2 17
-12 32 -27 39 -22 11 -20 13 30 27 30 8 79 18 109 21 30 3 97 22 148 41 143
54 279 88 345 86 54 -2 58 -1 67 25 6 15 13 44 16 63 2 20 7 54 10 76 7 50
-12 63 -76 55z"/>
<path d="M5340 3753 c-96 -24 -204 -50 -240 -57 -36 -7 -137 -36 -225 -64 -88
-28 -191 -58 -230 -67 -253 -57 -517 -138 -677 -207 -47 -20 -49 -22 -46 -57
2 -28 8 -38 30 -45 28 -10 64 -1 293 75 66 22 125 41 130 42 6 2 15 5 20 8 6
4 35 12 65 19 30 7 66 16 80 21 14 5 70 21 125 35 55 14 138 36 185 49 213 58
288 77 330 85 25 4 70 15 100 23 30 9 91 22 135 31 135 27 153 33 179 61 31
34 32 49 6 75 -28 28 -60 25 -260 -27z"/>
<path d="M4450 3340 c-174 -37 -276 -65 -296 -81 -9 -7 -14 -24 -12 -43 3 -29
5 -31 43 -30 22 1 78 16 125 33 104 38 224 61 278 54 33 -4 42 -2 51 14 6 12
7 32 2 49 -10 39 -27 39 -191 4z"/>
<path d="M2609 2563 c-15 -17 -123 -70 -199 -98 -25 -9 -76 -27 -115 -41 -173
-63 -559 -171 -805 -224 -47 -10 -125 -31 -175 -46 -133 -40 -187 -54 -206
-54 -9 0 -31 -13 -48 -29 -48 -45 -39 -92 23 -119 20 -9 32 -9 41 -2 7 5 45
19 86 29 41 11 128 35 194 54 66 19 154 42 195 52 66 14 289 78 328 92 11 5
12 2 4 -13 -5 -10 -20 -64 -32 -119 -12 -55 -26 -118 -31 -140 -12 -51 -44
-246 -64 -397 -18 -129 -13 -153 30 -164 36 -9 88 25 96 62 4 16 7 54 8 84 2
76 34 268 97 573 20 96 16 117 -27 128 -21 5 -19 7 19 18 145 41 242 70 250
75 14 8 236 74 305 90 33 8 64 19 69 24 12 12 48 109 48 127 0 18 -39 55 -59
55 -10 0 -25 -7 -32 -17z"/>
<path d="M2775 2500 c-9 -10 -17 -32 -17 -47 0 -15 -7 -46 -17 -68 -10 -22
-29 -65 -42 -95 -13 -30 -37 -80 -53 -110 -16 -30 -34 -66 -40 -80 -33 -73
-138 -271 -143 -267 -1 2 -7 48 -13 103 -19 177 -42 329 -52 342 -22 27 -98 7
-98 -26 0 -10 -7 -27 -15 -38 -8 -11 -14 -41 -15 -71 0 -40 -5 -58 -23 -79
l-24 -27 -21 21 c-27 27 -63 28 -84 5 -16 -18 -39 -92 -53 -168 -5 -22 -9 -47
-11 -55 -1 -8 -7 -47 -13 -86 -6 -39 -16 -89 -24 -112 -15 -42 -13 -100 2
-115 5 -5 25 -11 44 -13 27 -3 40 1 58 20 l23 24 26 -29 c65 -68 111 16 135
246 7 67 32 205 38 211 2 3 8 -33 11 -78 14 -158 35 -208 89 -208 28 0 67 30
67 52 0 4 8 16 18 26 9 10 22 27 29 38 23 36 123 233 123 242 0 15 52 103 57
98 6 -5 -20 -195 -37 -276 -11 -54 -32 -253 -30 -295 1 -41 18 -54 55 -44 53
15 75 43 77 102 1 29 2 75 3 102 3 62 25 256 30 265 7 11 45 363 45 416 0 40
-5 55 -23 72 -29 27 -58 28 -82 2z m-589 -724 c-13 -103 -28 -192 -34 -198
-13 -13 -8 68 12 197 45 279 58 280 22 1z"/>
<path d="M2175 2227 c-65 -36 -115 -74 -115 -89 0 -62 58 -67 112 -10 32 33
58 72 58 86 0 14 -37 23 -55 13z"/>
<path d="M4552 2089 c-39 -7 -150 -48 -191 -69 -9 -5 -47 -23 -85 -41 -46 -23
-92 -57 -142 -106 -80 -79 -96 -106 -95 -168 0 -39 24 -124 39 -135 4 -3 23
-27 42 -55 19 -27 40 -56 47 -63 7 -7 13 -18 13 -23 0 -5 8 -17 18 -28 56 -59
123 -142 165 -203 79 -116 63 -173 -68 -247 -60 -34 -122 -48 -188 -44 -68 5
-93 25 -114 89 -15 48 -15 64 -5 125 13 74 10 89 -14 89 -17 0 -66 -46 -83
-78 -18 -34 -16 -109 4 -176 39 -133 144 -185 305 -152 19 4 42 8 50 10 31 6
127 58 184 99 76 56 100 102 93 173 -7 66 -70 198 -136 287 l-52 67 35 0 c40
0 66 8 66 22 0 7 51 79 70 98 3 3 12 18 20 35 8 16 33 59 54 95 57 94 166 312
166 332 0 9 -14 30 -31 47 -26 26 -38 31 -77 30 -26 -1 -66 -5 -90 -10z m42
-111 c-4 -7 -17 -26 -29 -43 -12 -16 -32 -50 -45 -75 -30 -59 -121 -198 -181
-279 -27 -35 -46 -67 -43 -72 3 -5 2 -9 -3 -9 -4 1 -21 20 -38 43 -81 113 -88
135 -60 204 28 70 140 154 270 202 33 13 69 27 80 31 31 13 57 12 49 -2z"/>
<path d="M1525 1908 c-71 -22 -139 -44 -150 -49 -11 -5 -51 -18 -90 -29 -141
-42 -413 -133 -520 -175 -60 -23 -150 -52 -200 -64 -49 -12 -103 -27 -120 -32
-16 -6 -37 -12 -45 -13 -16 -2 -119 -33 -239 -73 -40 -13 -79 -22 -86 -19 -19
7 -45 -26 -45 -59 0 -28 38 -75 73 -88 9 -3 48 7 89 24 40 17 107 41 148 55
41 13 89 29 105 35 17 6 57 19 90 29 33 11 121 41 195 68 74 27 164 59 200 71
36 12 74 26 85 31 27 12 178 64 290 100 327 106 383 123 407 127 33 6 44 34
26 70 -19 40 -61 39 -213 -9z"/>
<path d="M1506 1739 c-92 -48 -321 -129 -420 -149 -38 -8 -66 -31 -66 -55 0
-22 32 -55 53 -55 12 0 44 9 72 20 27 11 140 52 250 91 110 39 208 78 218 87
32 28 14 92 -26 92 -12 -1 -49 -15 -81 -31z"/>
<path d="M3550 845 c-30 -13 -61 -22 -68 -20 -7 3 -15 -2 -18 -10 -9 -23 -197
-103 -404 -170 -86 -28 -329 -123 -431 -168 -80 -35 -83 -66 -15 -128 31 -28
73 -37 91 -20 18 17 240 113 536 231 162 65 315 127 339 139 24 12 49 21 55
21 37 0 61 79 39 122 -18 35 -48 35 -124 3z"/>
<path d="M3360 528 c-25 -12 -101 -40 -168 -63 -68 -24 -128 -47 -133 -52 -15
-15 1 -62 26 -79 23 -15 75 -10 75 6 0 5 24 16 53 25 28 10 66 23 82 30 53 22
130 45 147 45 28 0 50 30 43 58 -14 56 -50 64 -125 30z"/>
</g>
</svg>
